<?xml version="1.0" encoding="UTF-8"?>
<svg width="138px" height="29px" viewBox="0 0 138 29" version="1.1" xmlns="http://www.w3.org/2000/svg" xmlns:xlink="http://www.w3.org/1999/xlink">
    <!-- Generator: Sketch 49 (51002) - http://www.bohemiancoding.com/sketch -->
    <title>logo</title>
    <desc>Created with Sketch.</desc>
    <defs>
        <radialGradient cx="0%" cy="0%" fx="0%" fy="0%" r="486.255806%" gradientTransform="translate(0.000000,0.000000),scale(0.210145,1.000000),rotate(11.867732),translate(-0.000000,-0.000000)" id="radialGradient-1">
            <stop stop-color="#FFFFFF" offset="0%"></stop>
            <stop stop-color="#FFFFFF" stop-opacity="0" offset="100%"></stop>
        </radialGradient>
        <path d="M0,0 L0,29 L25.8146853,29 L28.75,20.4944134 L28.75,0 L0,0 Z M25.8951049,20.4944134 L23.965035,26.0837989 L2.8548951,26.0837989 L2.8548951,2.87569832 L25.8951049,2.87569832 L25.8951049,20.4944134 Z M12.2237762,18.8337989 L12.2237762,7.25 L9.32867133,7.25 L9.32867133,21.7094972 L18.4160839,21.7094972 L19.4213287,18.8337989 L12.2237762,18.8337989 Z M109.370629,6.88547486 C105.229021,6.88547486 101.851399,10.2877095 101.851399,14.4594972 C101.851399,18.6312849 105.229021,22.0335196 109.370629,22.0335196 C113.512238,22.0335196 116.88986,18.6312849 116.88986,14.4594972 C116.88986,10.2877095 113.552448,6.88547486 109.370629,6.88547486 Z M109.370629,19.0768156 C106.837413,19.0768156 104.826923,17.0111732 104.826923,14.5 C104.826923,11.948324 106.877622,9.92318436 109.370629,9.92318436 C111.903846,9.92318436 113.914336,11.9888268 113.914336,14.5 C113.954545,17.0111732 111.903846,19.0768156 109.370629,19.0768156 Z M77.7255245,7.25 L80.5804196,7.25 L80.5804196,21.7094972 L77.7255245,21.7094972 L70.527972,12.3938547 L70.527972,21.7094972 L67.6328671,21.7094972 L67.6328671,7.25 L70.527972,7.25 L77.7255245,16.5656425 L77.7255245,7.25 Z M41.6975524,18.8337989 L48.8951049,18.8337989 L47.8898601,21.7094972 L38.8426573,21.7094972 L38.8426573,7.25 L41.6975524,7.25 L41.6975524,18.8337989 Z M53.2377622,7.25 L63.3304196,7.25 L62.3251748,10.1256983 L56.1328671,10.1256983 L56.1328671,13.0418994 L61.8828671,13.0418994 L60.8776224,15.9175978 L56.1328671,15.9175978 L56.1328671,18.8337989 L63.3304196,18.8337989 L62.3251748,21.7094972 L53.2377622,21.7094972 L53.2377622,7.25 Z M129.596154,10.1256983 L131.687063,16.1201117 L134.783217,7.25 L138,7.25 L132.973776,21.7094972 L130.40035,21.7094972 L128.671329,16.6871508 L126.902098,21.7094972 L124.328671,21.7094972 L119.302448,7.25 L122.519231,7.25 L125.615385,16.1201117 L127.706294,10.1256983 L129.596154,10.1256983 Z M94.5734266,13.0418994 L97.8706294,13.0418994 L97.8706294,19.4413408 C96.5034965,21.1019553 94.4125874,22.1550279 92.1206294,22.1550279 C87.979021,22.1550279 84.6013986,18.7527933 84.6013986,14.5810056 C84.6013986,10.4092179 87.979021,7.00698324 92.1206294,7.00698324 C93.6486014,7.00698324 95.0559441,7.45251397 96.2622378,8.26256983 L95.2972028,10.976257 C94.4527972,10.3282123 93.3671329,9.96368715 92.1206294,9.96368715 C89.6276224,9.96368715 87.5769231,11.9888268 87.5769231,14.5405028 C87.5769231,17.051676 89.5874126,19.1173184 92.1206294,19.1173184 C93.2465035,19.1173184 94.2115385,18.7122905 95.0157343,18.0642458 L95.0157343,15.9581006 L93.5681818,15.9581006 L94.5734266,13.0418994 Z" id="path-2"></path>
    </defs>
    <g id="Design" stroke="none" stroke-width="1" fill="none" fill-rule="evenodd">
        <g id="Homepage" transform="translate(-135.000000, -7041.000000)" fill-rule="nonzero">
            <g id="FOOTER" transform="translate(135.000000, 7041.000000)">
                <g id="logo">
                    <use fill="#07488A" fill-rule="evenodd" xlink:href="#path-2"></use>
                    <use fill-opacity="0.400000006" fill="url(#radialGradient-1)" fill-rule="evenodd" style="mix-blend-mode: overlay;" xlink:href="#path-2"></use>
                </g>
            </g>
        </g>
    </g>
</svg>